<?xml version="1.0" standalone="no"?>
<!DOCTYPE svg PUBLIC "-//W3C//DTD SVG 20010904//EN"
 "http://www.w3.org/TR/2001/REC-SVG-20010904/DTD/svg10.dtd">
<svg version="1.0" xmlns="http://www.w3.org/2000/svg"
 width="16.000000pt" height="16.000000pt" viewBox="0 0 16.000000 16.000000"
 preserveAspectRatio="xMidYMid meet">

<g transform="translate(0.000000,16.000000) scale(0.100000,-0.100000)"
fill="#000000" stroke="none">
<path d="M24 143 c-16 -3 -20 -11 -19 -41 1 -36 45 -124 45 -90 0 9 -4 20 -10
23 -5 3 -10 13 -10 22 0 13 8 15 45 10 37 -5 45 -4 45 9 0 12 -7 14 -30 9 -32
-7 -43 11 -14 22 8 3 13 12 10 19 -6 17 -1 17 24 4 41 -22 31 -108 -12 -94
-14 4 -18 2 -14 -5 12 -19 56 -13 56 7 0 10 4 22 9 27 6 6 3 24 -7 45 -15 31
-22 35 -57 36 -22 1 -49 0 -61 -3z m39 -23 c-5 -20 -15 -25 -26 -13 -8 7 11
33 23 33 5 0 6 -9 3 -20z m-23 -30 c0 -5 -4 -10 -10 -10 -5 0 -10 5 -10 10 0
6 5 10 10 10 6 0 10 -4 10 -10z"/>
<path d="M123 3 c9 -2 23 -2 30 0 6 3 -1 5 -18 5 -16 0 -22 -2 -12 -5z"/>
</g>
</svg>
